<svg width="2913" height="1031" xmlns="http://www.w3.org/2000/svg" xmlns:xlink="http://www.w3.org/1999/xlink" xml:space="preserve" overflow="hidden"><defs><clipPath id="clip0"><rect x="57" y="1036" width="2913" height="1031"/></clipPath></defs><g clip-path="url(#clip0)" transform="translate(-57 -1036)"><rect x="57.0001" y="1036" width="2913" height="1031" fill="#FFFFFF"/><rect x="146" y="1168" width="2749" height="139" fill="#1B90FF" fill-opacity="0.490196"/><text font-family="Arial,Arial_MSFontService,sans-serif" font-weight="400" font-size="64" transform="matrix(1 0 0 1 178.121 1261)">Discovery</text><rect x="146" y="1449" width="2749" height="138" fill="#1B90FF" fill-opacity="0.490196"/><text font-family="Arial,Arial_MSFontService,sans-serif" font-weight="400" font-size="64" transform="matrix(1 0 0 1 178.121 1542)">Access Control</text><rect x="146" y="1730" width="2749" height="138" fill="#1B90FF" fill-opacity="0.490196"/><text font-family="Arial,Arial_MSFontService,sans-serif" font-weight="400" font-size="64" transform="matrix(1 0 0 1 178.121 1822)">Gate/API</text><path d="M1271 1122 1536 1122 1589 1175 1589 1511 1271 1511Z" fill="#36A41D" fill-rule="evenodd"/><text fill="#FFFFFF" font-family="72 Brand,72 Brand_MSFontService,sans-serif" font-weight="400" font-size="64" transform="matrix(1 0 0 1 1344.2 1277)">ADR</text><text fill="#FFFFFF" font-family="72 Brand,72 Brand_MSFontService,sans-serif" font-weight="400" font-size="64" transform="matrix(1 0 0 1 1469.67 1277)">-</text><text fill="#FFFFFF" font-family="72 Brand,72 Brand_MSFontService,sans-serif" font-weight="400" font-size="64" transform="matrix(1 0 0 1 1363.68 1354)">002 </text><text fill="#FFFFFF" font-family="72 Brand,72 Brand_MSFontService,sans-serif" font-weight="400" font-size="64" transform="matrix(1 0 0 1 1335.88 1431)">(DSP)</text><path d="M2080 1375 2295.83 1375 2339 1418.17 2339 1657 2080 1657Z" fill="#36A41D" fill-rule="evenodd"/><text fill="#FFFFFF" font-family="72 Brand,72 Brand_MSFontService,sans-serif" font-weight="400" font-size="64" transform="matrix(1 0 0 1 2125.89 1473)">ADR</text><text fill="#FFFFFF" font-family="72 Brand,72 Brand_MSFontService,sans-serif" font-weight="400" font-size="64" transform="matrix(1 0 0 1 2251.36 1473)">-</text><text fill="#FFFFFF" font-family="72 Brand,72 Brand_MSFontService,sans-serif" font-weight="400" font-size="64" transform="matrix(1 0 0 1 2145.37 1550)">003 </text><text fill="#FFFFFF" font-family="72 Brand,72 Brand_MSFontService,sans-serif" font-weight="400" font-size="64" transform="matrix(1 0 0 1 2115.28 1627)">(DCP)</text><path d="M667 1656 912.832 1656 962 1705.17 962 1990 667 1990Z" fill="#36A41D" fill-rule="evenodd"/><text fill="#FFFFFF" font-family="72 Brand,72 Brand_MSFontService,sans-serif" font-weight="400" font-size="64" transform="matrix(1 0 0 1 729.204 1743)">ADR</text><text fill="#FFFFFF" font-family="72 Brand,72 Brand_MSFontService,sans-serif" font-weight="400" font-size="64" transform="matrix(1 0 0 1 854.673 1743)">-</text><text fill="#FFFFFF" font-family="72 Brand,72 Brand_MSFontService,sans-serif" font-weight="400" font-size="64" transform="matrix(1 0 0 1 748.683 1820)">008 </text><text fill="#FFFFFF" font-family="72 Brand,72 Brand_MSFontService,sans-serif" font-weight="400" font-size="64" transform="matrix(1 0 0 1 722.902 1897)">(AAS</text><text fill="#FFFFFF" font-family="72 Brand,72 Brand_MSFontService,sans-serif" font-weight="400" font-size="64" transform="matrix(1 0 0 1 860.975 1897)">-</text><text fill="#FFFFFF" font-family="72 Brand,72 Brand_MSFontService,sans-serif" font-weight="400" font-size="64" transform="matrix(1 0 0 1 716.875 1974)">REST)</text><path d="M1822.87 1355.58 2063.19 1500.65 2058.45 1508.49 1818.13 1363.42ZM2064 1490.43 2080.44 1516.41 2049.79 1513.97Z"/><rect x="1531" y="1329" width="289" height="61.0002"/><text fill="#FFFFFF" font-family="72 Brand,72 Brand_MSFontService,sans-serif" font-weight="400" font-size="50" transform="matrix(1 0 0 1 1555.81 1378)">reference</text><text fill="#FFFFFF" font-family="72 Brand,72 Brand_MSFontService,sans-serif" font-weight="400" font-size="50" transform="matrix(1 0 0 1 1771.22 1378)">s</text><path d="M1720 1662 1965.83 1662 2015 1711.17 2015 1996 1720 1996Z" fill="#36A41D" fill-rule="evenodd"/><text fill="#FFFFFF" font-family="72 Brand,72 Brand_MSFontService,sans-serif" font-weight="400" font-size="64" transform="matrix(1 0 0 1 1782.55 1749)">ADR</text><text fill="#FFFFFF" font-family="72 Brand,72 Brand_MSFontService,sans-serif" font-weight="400" font-size="64" transform="matrix(1 0 0 1 1908.02 1749)">-</text><text fill="#FFFFFF" font-family="72 Brand,72 Brand_MSFontService,sans-serif" font-weight="400" font-size="64" transform="matrix(1 0 0 1 1802.03 1826)">011 </text><text fill="#FFFFFF" font-family="72 Brand,72 Brand_MSFontService,sans-serif" font-weight="400" font-size="64" transform="matrix(1 0 0 1 1776.25 1903)">(AAS</text><text fill="#FFFFFF" font-family="72 Brand,72 Brand_MSFontService,sans-serif" font-weight="400" font-size="64" transform="matrix(1 0 0 1 1914.32 1903)">-</text><text fill="#FFFFFF" font-family="72 Brand,72 Brand_MSFontService,sans-serif" font-weight="400" font-size="64" transform="matrix(1 0 0 1 1759.33 1980)">MQTT)</text><path d="M3.91128-2.38932 301.211 484.285 293.388 489.064-3.91128 2.38932ZM306.644 475.596 309.246 506.231 283.176 489.932Z" transform="matrix(1 0 0 -1 962.5 1823.73)"/><path d="M1716.96 1832.5 1442.55 1531.52 1449.33 1525.35 1723.74 1826.32ZM1438.87 1541.09 1430.5 1511.5 1459.19 1522.56Z"/><path d="M1008 1435 1145.81 1435 1200 1489.19 1200 1641 1008 1641Z" fill="#36A41D" fill-rule="evenodd"/><text fill="#FFFFFF" font-family="72 Brand,72 Brand_MSFontService,sans-serif" font-weight="400" font-size="46" transform="matrix(1 0 0 1 1044.99 1541)">ADR</text><text fill="#FFFFFF" font-family="72 Brand,72 Brand_MSFontService,sans-serif" font-weight="400" font-size="46" transform="matrix(1 0 0 1 1044.99 1596)">-</text><text fill="#FFFFFF" font-family="72 Brand,72 Brand_MSFontService,sans-serif" font-weight="400" font-size="46" transform="matrix(1 0 0 1 1059.31 1596)">009</text><path d="M1463 1584 1600.81 1584 1655 1638.19 1655 1790 1463 1790Z" fill="#36A41D" fill-rule="evenodd"/><text fill="#FFFFFF" font-family="72 Brand,72 Brand_MSFontService,sans-serif" font-weight="400" font-size="46" transform="matrix(1 0 0 1 1500.42 1690)">ADR</text><text fill="#FFFFFF" font-family="72 Brand,72 Brand_MSFontService,sans-serif" font-weight="400" font-size="46" transform="matrix(1 0 0 1 1500.42 1745)">-</text><text fill="#FFFFFF" font-family="72 Brand,72 Brand_MSFontService,sans-serif" font-weight="400" font-size="46" transform="matrix(1 0 0 1 1514.74 1745)">012</text></g></svg>